<?xml version="1.0" standalone="no"?>
<!DOCTYPE svg PUBLIC "-//W3C//DTD SVG 20010904//EN"
 "http://www.w3.org/TR/2001/REC-SVG-20010904/DTD/svg10.dtd">
<svg version="1.0" xmlns="http://www.w3.org/2000/svg"
 width="512.000000pt" height="512.000000pt" viewBox="0 0 512.000000 512.000000"
 preserveAspectRatio="xMidYMid meet">

<g transform="translate(0.000000,512.000000) scale(0.100000,-0.100000)"
fill="#000000" stroke="none">
<path d="M1405 5106 c-134 -34 -251 -129 -313 -255 -37 -75 -37 -77 -37 -201
0 -124 0 -126 37 -201 63 -129 189 -228 326 -258 38 -8 351 -11 1075 -11
l1022 0 -1716 -1717 c-1601 -1603 -1719 -1722 -1749 -1784 -194 -403 226 -823
629 -629 62 30 181 148 1784 1749 l1717 1716 0 -1022 c0 -724 3 -1037 11
-1075 30 -137 129 -263 258 -326 75 -37 77 -37 202 -37 124 0 125 0 201 37
129 64 227 189 257 326 15 70 16 3243 1 3323 -33 179 -189 335 -369 369 -85
16 -3271 12 -3336 -4z"/>
</g>
</svg>
