<?xml version="1.0" standalone="no"?>
<!DOCTYPE svg PUBLIC "-//W3C//DTD SVG 20010904//EN"
 "http://www.w3.org/TR/2001/REC-SVG-20010904/DTD/svg10.dtd">
<svg version="1.0" xmlns="http://www.w3.org/2000/svg"
 width="512.000000pt" height="512.000000pt" viewBox="0 0 512.000000 512.000000"
 preserveAspectRatio="xMidYMid meet">

<g transform="translate(0.000000,512.000000) scale(0.100000,-0.100000)"
fill="#000000" stroke="none">
<path d="M3160 5015 c-150 -33 -278 -89 -410 -178 -56 -38 -331 -306 -1093
-1066 -560 -559 -1049 -1052 -1086 -1096 -174 -204 -283 -431 -338 -700 -25
-127 -25 -433 0 -560 62 -303 192 -553 396 -755 258 -256 584 -405 965 -441
260 -25 581 43 818 174 192 105 226 136 1077 977 447 443 915 904 1039 1025
238 233 272 277 272 358 0 76 -49 150 -124 189 -48 24 -132 26 -178 3 -18 -10
-503 -486 -1078 -1059 -1137 -1134 -1104 -1105 -1296 -1183 -158 -64 -221 -76
-404 -77 -147 0 -175 3 -262 26 -382 104 -683 405 -785 786 -23 85 -26 116
-26 257 0 141 3 172 26 257 30 114 86 238 153 340 37 56 291 316 1103 1129
l1056 1057 85 41 c113 55 207 74 335 68 180 -9 327 -76 444 -203 177 -194 210
-463 85 -707 -35 -67 -108 -142 -1073 -1109 -605 -606 -1050 -1045 -1071
-1055 -49 -24 -126 -22 -177 5 -102 53 -148 180 -101 277 6 11 432 443 949
960 659 660 943 951 954 977 73 177 -110 358 -280 279 -61 -29 -1962 -1938
-1998 -2008 -125 -238 -69 -590 123 -783 114 -115 249 -170 418 -170 145 0
267 40 381 125 25 18 514 503 1087 1077 792 793 1052 1060 1087 1114 256 392
240 870 -42 1238 -156 205 -346 335 -579 398 -102 27 -356 35 -452 13z"/>
</g>
</svg>
