<?xml version="1.0" standalone="no"?>
<!DOCTYPE svg PUBLIC "-//W3C//DTD SVG 20010904//EN"
 "http://www.w3.org/TR/2001/REC-SVG-20010904/DTD/svg10.dtd">
<svg version="1.0" xmlns="http://www.w3.org/2000/svg"
 width="512.000000pt" height="512.000000pt" viewBox="0 0 512.000000 512.000000"
 preserveAspectRatio="xMidYMid meet">

<g transform="translate(0.000000,512.000000) scale(0.100000,-0.100000)"
fill="#000000" stroke="none">
<path d="M2330 5110 c-494 -48 -950 -230 -1350 -538 -195 -150 -448 -432 -594
-662 -63 -99 -186 -351 -230 -471 -262 -714 -184 -1551 204 -2184 l40 -65
-195 -488 c-111 -274 -198 -507 -201 -532 -9 -81 54 -158 137 -167 39 -4 98
17 546 196 l503 201 65 -40 c633 -388 1470 -466 2184 -204 120 44 372 167 471
230 321 204 620 503 824 824 63 99 186 351 230 471 49 134 102 340 128 499 18
113 21 176 21 380 0 278 -15 409 -78 649 -48 180 -92 297 -180 476 -132 269
-269 460 -489 681 -221 220 -412 357 -681 489 -246 121 -474 193 -740 235
-147 23 -475 34 -615 20z"/>
</g>
</svg>
