<?xml version="1.0" standalone="no"?>
<!DOCTYPE svg PUBLIC "-//W3C//DTD SVG 20010904//EN"
 "http://www.w3.org/TR/2001/REC-SVG-20010904/DTD/svg10.dtd">
<svg version="1.0" xmlns="http://www.w3.org/2000/svg"
 width="512.000000pt" height="512.000000pt" viewBox="0 0 512.000000 512.000000"
 preserveAspectRatio="xMidYMid meet">

<g transform="translate(0.000000,512.000000) scale(0.100000,-0.100000)"
fill="#000000" stroke="none">
<path d="M1005 4790 c-202 -41 -357 -186 -422 -396 -17 -56 -18 -140 -18
-1834 0 -1694 1 -1778 18 -1834 57 -185 182 -318 354 -378 l68 -23 1185 0
1185 0 65 23 c136 50 256 155 315 279 52 108 55 142 55 638 l0 460 -452 -452
-453 -451 -335 -145 c-184 -80 -354 -150 -378 -157 -162 -43 -327 124 -283
288 7 23 77 192 157 375 l144 332 800 800 800 800 0 297 0 296 -342 4 c-291 4
-351 7 -398 22 -152 49 -273 168 -323 319 -19 57 -21 92 -25 405 l-4 342 -836
-1 c-461 -1 -855 -5 -877 -9z m504 -1280 c31 -16 45 -64 29 -97 -13 -28 -294
-249 -355 -280 -32 -16 -35 -16 -129 22 -54 21 -105 46 -115 56 -30 30 -34 67
-12 97 35 46 63 49 141 15 l68 -30 153 113 c152 114 179 126 220 104z m1927
-253 c20 -17 27 -33 27 -57 0 -24 -7 -40 -27 -57 l-27 -23 -810 0 -810 0 -24
25 c-16 15 -25 36 -25 55 0 19 9 40 25 55 l24 25 810 0 810 0 27 -23z m-1927
-387 c31 -16 45 -64 29 -97 -13 -28 -294 -249 -355 -280 -32 -16 -35 -16 -129
22 -54 21 -105 46 -115 56 -30 30 -34 67 -12 97 35 46 63 49 141 15 l68 -30
153 113 c152 114 179 126 220 104z m1565 -251 c37 -29 37 -89 0 -118 -26 -21
-34 -21 -656 -21 l-629 0 -24 25 c-16 15 -25 36 -25 55 0 19 9 40 25 55 l24
25 629 0 c622 0 630 0 656 -21z m-1565 -389 c28 -14 44 -61 32 -93 -9 -23
-211 -187 -334 -270 -49 -33 -58 -33 -180 18 -67 29 -91 44 -103 66 -18 36
-10 73 23 99 34 26 49 25 125 -9 l64 -28 153 113 c152 114 179 126 220 104z
m925 -251 c20 -16 26 -29 26 -59 0 -30 -6 -43 -26 -59 -26 -20 -38 -21 -334
-21 -296 0 -308 1 -334 21 -20 16 -26 29 -26 59 0 30 6 43 26 59 26 20 38 21
334 21 296 0 308 -1 334 -21z"/>
<path d="M2880 4485 c0 -149 5 -299 11 -335 19 -118 79 -198 189 -249 54 -26
58 -26 330 -29 151 -2 292 -2 313 0 l37 3 -440 440 -440 440 0 -270z"/>
<path d="M4153 3160 c-66 -14 -114 -44 -194 -119 l-74 -70 235 -235 235 -236
63 63 c103 101 133 164 133 280 0 202 -197 359 -398 317z"/>
<path d="M3091 2176 l-674 -674 50 -59 c28 -32 133 -139 233 -237 l182 -179
679 679 679 679 -232 232 c-128 128 -235 233 -238 233 -3 0 -308 -303 -679
-674z"/>
<path d="M2312 1344 c-39 -73 -252 -580 -252 -599 0 -29 30 -62 64 -71 17 -4
103 28 317 121 162 70 297 130 301 134 4 4 -89 103 -206 220 -189 188 -215
211 -224 195z"/>
</g>
</svg>
