<?xml version="1.0" standalone="no"?>
<!DOCTYPE svg PUBLIC "-//W3C//DTD SVG 20010904//EN"
 "http://www.w3.org/TR/2001/REC-SVG-20010904/DTD/svg10.dtd">
<svg version="1.0" xmlns="http://www.w3.org/2000/svg"
 width="512.000000pt" height="512.000000pt" viewBox="0 0 512.000000 512.000000"
 preserveAspectRatio="xMidYMid meet">

<g transform="translate(0.000000,512.000000) scale(0.100000,-0.100000)"
fill="#000000" stroke="none">
<path d="M995 4788 c-174 -33 -337 -179 -404 -362 l-26 -71 0 -1795 0 -1795
26 -71 c69 -188 231 -330 413 -363 40 -8 426 -11 1190 -11 1255 0 1196 -3
1328 67 89 47 174 132 221 221 63 119 67 151 67 573 0 366 -1 377 -21 403 -29
37 -89 37 -118 0 -20 -26 -21 -37 -21 -399 0 -345 -1 -378 -20 -436 -38 -121
-129 -212 -250 -249 -64 -20 -85 -20 -1215 -18 l-1150 3 -65 31 c-118 56 -199
163 -220 290 -13 80 -13 3428 0 3508 21 127 102 234 220 290 l65 31 851 3 852
3 4 -268 c6 -283 10 -310 63 -414 24 -46 121 -146 171 -175 103 -61 138 -66
427 -72 l267 -4 0 -290 0 -290 29 -29 c37 -37 65 -37 102 0 l29 29 0 349 0
348 -488 487 -487 488 -895 -1 c-516 -1 -916 -5 -945 -11z m2217 -585 c175
-175 318 -322 318 -327 0 -4 -89 -7 -198 -4 l-198 3 -66 33 c-76 37 -120 83
-157 162 -24 52 -25 66 -29 253 -3 108 0 197 4 197 5 0 152 -143 326 -317z"/>
<path d="M1286 3406 l-149 -114 -74 31 c-69 29 -76 30 -101 16 -15 -8 -33 -27
-40 -43 -18 -36 -1 -81 38 -101 69 -36 185 -76 206 -71 35 9 364 265 374 292
11 28 5 51 -23 82 -40 43 -69 32 -231 -92z"/>
<path d="M1766 3259 c-20 -16 -26 -29 -26 -59 0 -30 6 -43 26 -59 27 -21 32
-21 836 -21 l810 0 29 29 c37 37 37 65 0 102 l-29 29 -810 0 c-804 0 -809 0
-836 -21z"/>
<path d="M4163 3160 c-112 -23 -94 -7 -971 -883 -468 -467 -842 -848 -853
-869 -47 -92 -279 -640 -279 -661 0 -28 32 -65 64 -73 17 -4 116 34 352 136
l329 142 829 827 c515 514 843 848 866 884 49 74 63 134 49 218 -30 186 -208
315 -386 279z m99 -160 c116 -33 164 -160 99 -261 -16 -24 -48 -63 -73 -86
l-44 -43 -122 123 -122 122 63 63 c37 36 80 69 103 77 48 17 50 17 96 5z
m-142 -505 c0 -5 -304 -314 -675 -685 l-675 -675 -122 123 -123 122 680 680
680 680 117 -117 c65 -65 118 -122 118 -128z m-1494 -1442 c-8 -8 -321 -142
-324 -138 -3 3 106 262 130 309 9 16 20 8 104 -75 51 -51 92 -94 90 -96z"/>
<path d="M1286 2766 l-149 -114 -74 31 c-69 29 -76 30 -101 16 -15 -8 -33 -27
-40 -43 -18 -36 -1 -81 38 -101 69 -36 185 -76 206 -71 35 9 364 265 374 292
11 28 5 51 -23 82 -40 43 -69 32 -231 -92z"/>
<path d="M1766 2619 c-20 -16 -26 -29 -26 -59 0 -30 6 -43 26 -59 26 -21 34
-21 713 -21 677 0 688 0 709 20 40 38 37 93 -7 127 -12 9 -179 12 -702 13
-679 0 -687 0 -713 -21z"/>
<path d="M1286 2126 l-149 -114 -74 31 c-69 29 -76 30 -101 16 -15 -8 -33 -27
-40 -43 -18 -36 -1 -81 38 -101 69 -36 185 -76 206 -71 35 9 364 265 374 292
11 28 5 51 -23 82 -40 43 -69 32 -231 -92z"/>
<path d="M1766 1979 c-20 -16 -26 -29 -26 -59 0 -30 6 -43 26 -59 26 -20 38
-21 391 -21 l365 0 29 29 c16 16 29 39 29 51 0 12 -13 35 -29 51 l-29 29 -365
0 c-353 0 -365 -1 -391 -21z"/>
</g>
</svg>
