<svg version="1.1" id="Layer_1" xmlns="http://www.w3.org/2000/svg" xmlns:xlink="http://www.w3.org/1999/xlink" x="0px" y="0px"
	 width="100%" viewBox="0 0 256 256" enable-background="new 0 0 256 256" xml:space="preserve">
<path fill="#45B058" opacity="1.000000" stroke="none" 
	d="
M229.000000,257.000000 
	C162.645767,257.000000 96.291542,257.000000 29.689236,256.675323 
	C18.880026,250.684555 16.775160,241.494919 16.830153,230.197617 
	C17.168728,160.641571 17.014643,91.083046 16.980341,21.525375 
	C16.976324,13.378726 20.320116,7.309798 27.369015,3.208645 
	C28.095198,2.786140 28.464891,1.750915 29.000000,1.000000 
	C74.020897,1.000000 119.041786,1.000000 164.584869,1.466168 
	C165.109680,19.930836 165.119476,37.929337 165.112244,55.927834 
	C165.107803,67.015945 168.949814,76.004250 179.235809,81.921417 
	C184.409088,83.818741 189.341660,86.575256 194.374710,86.772919 
	C209.845779,87.380539 225.355316,87.008530 240.908188,87.481598 
	C240.977600,137.769867 241.008759,187.593811 240.976624,237.417709 
	C240.972183,244.308685 237.993973,249.684708 232.150909,253.509583 
	C230.882523,254.339890 230.039139,255.819473 229.000000,257.000000 
z"/>
<path fill="#000000" opacity="1.000000" stroke="none" 
	d="
M229.468658,257.000000 
	C230.039139,255.819473 230.882523,254.339890 232.150909,253.509583 
	C237.993973,249.684708 240.972183,244.308685 240.976624,237.417709 
	C241.008759,187.593811 240.977600,137.769867 240.965546,87.076416 
	C240.697189,84.451187 240.429749,82.695473 239.961334,80.669525 
	C225.541580,65.162315 211.326172,49.922199 197.102814,34.689487 
	C187.280533,24.170200 177.437378,13.670334 167.650497,3.118254 
	C167.198181,2.630576 167.206314,1.715839 167.000000,1.000000 
	C196.964874,1.000000 226.929749,1.000000 256.947327,1.000000 
	C256.947327,86.333328 256.947327,171.666656 256.947327,257.000000 
	C247.916199,257.000000 238.926758,257.000000 229.468658,257.000000 
z"/>
<path fill="#000000" opacity="1.000000" stroke="none" 
	d="
M28.531342,1.000000 
	C28.464891,1.750915 28.095198,2.786140 27.369015,3.208645 
	C20.320116,7.309798 16.976324,13.378726 16.980341,21.525375 
	C17.014643,91.083046 17.168728,160.641571 16.830153,230.197617 
	C16.775160,241.494919 18.880026,250.684555 29.220577,256.675323 
	C19.679768,257.000000 10.359535,257.000000 1.044814,257.000000 
	C1.050325,171.666656 1.050325,86.333313 1.050325,1.000000 
	C10.087995,1.000000 19.075338,1.000000 28.531342,1.000000 
z"/>
<path fill="#A0D6AA" opacity="1.000000" stroke="none" 
	d="
M166.666672,1.000000 
	C167.206314,1.715839 167.198181,2.630576 167.650497,3.118254 
	C177.437378,13.670334 187.280533,24.170200 197.102814,34.689487 
	C211.326172,49.922199 225.541580,65.162315 239.696533,81.023254 
	C238.168442,81.831467 236.702774,82.186333 235.240189,82.174049 
	C216.506897,82.016685 197.774048,81.806808 179.041077,81.610252 
	C168.949814,76.004250 165.107803,67.015945 165.112244,55.927834 
	C165.119476,37.929337 165.109680,19.930836 165.053528,1.466168 
	C165.444443,1.000000 165.888901,1.000000 166.666672,1.000000 
z"/>
<path fill="#3EA24C" opacity="1.000000" stroke="none" 
	d="
M179.235809,81.921417 
	C197.774048,81.806808 216.506897,82.016685 235.240189,82.174049 
	C236.702774,82.186333 238.168442,81.831467 239.897491,81.293503 
	C240.429749,82.695473 240.697189,84.451187 240.907257,86.612076 
	C225.355316,87.008530 209.845779,87.380539 194.374710,86.772919 
	C189.341660,86.575256 184.409088,83.818741 179.235809,81.921417 
z"/>
</svg>