<?xml version="1.0" standalone="no"?>
<!DOCTYPE svg PUBLIC "-//W3C//DTD SVG 20010904//EN"
 "http://www.w3.org/TR/2001/REC-SVG-20010904/DTD/svg10.dtd">
<svg version="1.0" xmlns="http://www.w3.org/2000/svg"
 width="512.000000pt" height="512.000000pt" viewBox="0 0 512.000000 512.000000"
 preserveAspectRatio="xMidYMid meet">

<g transform="translate(0.000000,512.000000) scale(0.100000,-0.100000)"
fill="#000000" stroke="none">
<path d="M2410 4465 c-36 -7 -85 -21 -110 -30 -25 -8 -519 -232 -1098 -497
-1145 -523 -1116 -508 -1169 -616 -39 -80 -40 -192 -2 -272 55 -115 8 -91
1152 -613 573 -262 1062 -485 1087 -495 129 -54 328 -68 477 -32 62 15 347
141 1156 510 1179 539 1132 514 1184 628 64 137 25 298 -91 387 -34 26 -2042
949 -2163 995 -129 48 -291 62 -423 35z"/>
<path d="M4638 2406 l-157 -71 -1 -463 c0 -510 -1 -504 61 -557 81 -67 220
-27 249 73 7 25 10 214 8 563 l-3 526 -157 -71z"/>
<path d="M962 1774 l3 -409 27 -73 c53 -145 143 -260 265 -339 76 -50 327
-149 493 -197 289 -82 501 -111 810 -111 313 0 539 32 822 114 170 50 413 148
486 197 118 78 210 196 260 336 l26 73 4 409 c3 391 3 408 -15 403 -10 -2
-265 -118 -568 -257 -302 -138 -577 -263 -610 -276 -121 -48 -213 -66 -365
-71 -156 -6 -256 7 -381 48 -35 12 -325 140 -644 286 -319 146 -588 268 -598
271 -17 4 -18 -13 -15 -404z"/>
</g>
</svg>
