<?xml version="1.0" standalone="no"?>
<!DOCTYPE svg PUBLIC "-//W3C//DTD SVG 20010904//EN"
 "http://www.w3.org/TR/2001/REC-SVG-20010904/DTD/svg10.dtd">
<svg version="1.0" xmlns="http://www.w3.org/2000/svg"
 width="512.000000pt" height="512.000000pt" viewBox="0 0 512.000000 512.000000"
 preserveAspectRatio="xMidYMid meet">

<g transform="translate(0.000000,512.000000) scale(0.100000,-0.100000)"
fill="#000000" stroke="none">
<path d="M2410 4465 c-36 -7 -85 -21 -110 -30 -25 -8 -519 -232 -1098 -497
-1145 -523 -1116 -508 -1169 -616 -39 -80 -40 -192 -2 -272 51 -107 70 -119
517 -323 l407 -186 6 -553 c6 -611 5 -607 73 -753 111 -241 277 -370 586 -459
630 -179 1240 -181 1864 -5 160 46 262 90 349 153 156 111 268 285 308 480 17
82 19 142 19 612 l0 521 146 67 c80 37 152 70 159 73 12 4 15 -69 17 -485 3
-478 4 -491 24 -518 39 -53 71 -69 134 -69 63 0 95 16 134 69 21 27 21 40 24
592 l2 564 93 44 c106 50 159 97 194 174 64 137 25 298 -91 387 -35 26 -2039
948 -2162 995 -130 48 -292 62 -424 35z m306 -333 c126 -48 2074 -946 2067
-953 -15 -15 -2028 -932 -2086 -950 -84 -27 -203 -25 -287 4 -47 17 -1586 716
-2067 940 -20 9 -4 19 140 84 89 41 234 107 322 148 554 253 1555 710 1584
722 87 37 238 39 327 5z m-931 -1970 c264 -121 514 -231 555 -243 65 -21 95
-24 225 -24 143 0 154 2 240 32 50 17 302 129 560 247 l470 215 3 -427 c2
-287 -1 -447 -8 -487 -26 -135 -127 -273 -242 -329 -119 -58 -433 -134 -693
-167 -149 -19 -551 -17 -705 5 -253 34 -539 105 -659 163 -111 53 -213 190
-240 321 -17 80 -15 926 2 919 6 -3 228 -104 492 -225z"/>
</g>
</svg>
