<?xml version="1.0" standalone="no"?>
<!DOCTYPE svg PUBLIC "-//W3C//DTD SVG 20010904//EN"
 "http://www.w3.org/TR/2001/REC-SVG-20010904/DTD/svg10.dtd">
<svg version="1.0" xmlns="http://www.w3.org/2000/svg"
 width="512.000000pt" height="512.000000pt" viewBox="0 0 512.000000 512.000000"
 preserveAspectRatio="xMidYMid meet">

<g transform="translate(0.000000,512.000000) scale(0.100000,-0.100000)"
fill="#000000" stroke="none">
<path d="M2887 5098 c-67 -40 -77 -76 -77 -288 0 -164 2 -188 20 -224 30 -60
64 -81 132 -81 66 0 103 22 130 76 26 49 27 403 2 455 -36 75 -135 105 -207
62z"/>
<path d="M2090 4618 c-38 -19 -50 -34 -77 -89 -18 -37 -310 -656 -648 -1375
l-616 -1309 -249 -250 c-211 -212 -249 -256 -255 -287 -15 -81 -16 -80 358
-456 385 -386 387 -387 472 -362 32 10 80 51 240 211 l200 199 430 -431 c237
-237 447 -439 467 -450 47 -24 89 -24 136 0 48 25 617 597 631 634 14 37 14
93 0 120 -6 12 -153 165 -327 339 l-315 316 94 44 c1095 514 1690 798 1716
821 41 36 58 92 44 145 -9 31 -188 214 -1083 1109 -607 607 -1085 1077 -1101
1083 -42 15 -68 12 -117 -12z m1897 -2174 c-5 -6 -2429 -1144 -2435 -1144 -4
0 -117 110 -251 244 -195 195 -242 248 -237 263 4 10 262 559 573 1221 l567
1203 892 -892 c491 -491 892 -894 891 -895z m-2899 -1117 l212 -212 -135 -135
-135 -135 -210 210 c-116 115 -210 214 -210 220 0 10 250 265 260 265 3 0 101
-96 218 -213z m1455 -325 l287 -287 -175 -175 -175 -175 -350 350 c-192 192
-346 353 -342 357 9 9 444 216 457 217 6 1 139 -128 298 -287z"/>
<path d="M4185 4621 c-53 -25 -391 -365 -400 -404 -33 -133 89 -239 210 -182
17 9 111 96 208 193 146 148 177 184 186 220 21 76 -18 153 -92 181 -40 15
-66 13 -112 -8z"/>
<path d="M4332 3330 c-100 -61 -95 -203 9 -258 43 -22 51 -23 241 -20 215 3
223 5 272 72 30 40 29 120 -3 165 -40 55 -67 61 -288 61 -180 0 -201 -2 -231
-20z"/>
</g>
</svg>
