<?xml version="1.0" standalone="no"?>
<!DOCTYPE svg PUBLIC "-//W3C//DTD SVG 20010904//EN"
 "http://www.w3.org/TR/2001/REC-SVG-20010904/DTD/svg10.dtd">
<svg version="1.0" xmlns="http://www.w3.org/2000/svg"
 width="512.000000pt" height="512.000000pt" viewBox="0 0 512.000000 512.000000"
 preserveAspectRatio="xMidYMid meet">

<g transform="translate(0.000000,512.000000) scale(0.100000,-0.100000)"
fill="#000000" stroke="none">
<path d="M1535 5108 c-145 -27 -283 -135 -351 -272 -38 -79 -39 -80 -42 -217
l-4 -138 -217 -3 c-209 -3 -218 -4 -272 -29 -79 -37 -133 -90 -171 -167 l-33
-67 0 -1975 0 -1975 26 -56 c37 -79 90 -133 167 -171 l67 -33 1510 0 1510 0
57 28 c73 36 150 119 177 192 18 49 21 78 21 234 l0 179 153 5 c121 3 164 9
211 26 164 59 291 200 325 359 16 75 16 3629 0 3704 -34 159 -158 297 -325
360 l-59 23 -1350 1 c-825 1 -1369 -2 -1400 -8z m2713 -323 c43 -19 79 -50 98
-87 21 -41 21 -3595 0 -3636 -40 -78 -100 -102 -251 -102 l-115 0 0 1620 c0
1613 0 1619 -21 1675 -27 73 -104 156 -177 192 l-57 28 -1132 3 -1133 2 0 103
c0 92 2 106 24 138 22 32 53 53 106 72 8 3 601 6 1318 6 1154 1 1307 -1 1340
-14z m-593 -2545 l0 -1915 -1445 0 -1445 0 -3 1905 c-1 1048 0 1911 3 1918 3
10 298 12 1447 10 l1443 -3 0 -1915z"/>
<path d="M1415 3266 c-67 -29 -105 -106 -91 -181 9 -47 59 -102 104 -115 25
-8 293 -10 834 -8 787 3 797 3 824 24 53 39 69 71 69 134 0 63 -16 95 -69 134
-27 21 -37 21 -834 23 -656 2 -813 0 -837 -11z"/>
<path d="M1415 2626 c-67 -29 -105 -106 -91 -181 9 -47 59 -102 104 -115 25
-8 293 -10 834 -8 787 3 797 3 824 24 53 39 69 71 69 134 0 63 -16 95 -69 134
-27 21 -37 21 -834 23 -656 2 -813 0 -837 -11z"/>
<path d="M1415 1986 c-67 -29 -105 -106 -91 -181 9 -47 59 -102 104 -115 25
-8 293 -10 834 -8 787 3 797 3 824 24 53 39 69 71 69 134 0 63 -16 95 -69 134
-27 21 -37 21 -834 23 -656 2 -813 0 -837 -11z"/>
</g>
</svg>
