<?xml version="1.0" standalone="no"?>
<!DOCTYPE svg PUBLIC "-//W3C//DTD SVG 20010904//EN"
 "http://www.w3.org/TR/2001/REC-SVG-20010904/DTD/svg10.dtd">
<svg version="1.0" xmlns="http://www.w3.org/2000/svg"
 width="512.000000pt" height="512.000000pt" viewBox="0 0 512.000000 512.000000"
 preserveAspectRatio="xMidYMid meet">

<g transform="translate(0.000000,512.000000) scale(0.100000,-0.100000)"
fill="#000000" stroke="none">
<path d="M3385 4988 c-35 -20 -42 -39 -48 -128 -4 -48 -13 -118 -21 -156 -74
-344 -324 -625 -659 -740 -76 -26 -231 -54 -307 -54 -48 -1 -70 -12 -88 -47
-20 -36 -14 -73 16 -102 25 -25 35 -28 127 -34 249 -16 467 -115 645 -296 174
-175 267 -382 287 -638 8 -107 28 -138 92 -138 67 0 83 24 92 143 20 261 114
469 290 644 173 172 393 269 643 285 122 8 151 25 151 93 0 56 -37 90 -98 90
-72 0 -229 28 -304 54 -289 99 -522 325 -623 604 -35 96 -60 228 -60 314 0 52
-3 63 -29 89 -31 31 -70 37 -106 17z"/>
<path d="M1675 3658 c-34 -19 -44 -41 -45 -91 -1 -212 -69 -486 -168 -684 -99
-196 -300 -429 -479 -556 -237 -168 -520 -267 -818 -284 -103 -6 -112 -8 -137
-34 -37 -37 -37 -81 0 -118 25 -26 35 -28 140 -35 638 -38 1173 -444 1377
-1046 49 -142 85 -347 85 -482 0 -66 32 -103 89 -103 71 0 83 22 93 172 29
428 212 805 524 1077 263 231 582 361 934 382 96 6 116 10 139 30 36 31 36 97
0 128 -23 20 -42 24 -135 29 -561 33 -1053 355 -1299 852 -103 209 -150 383
-162 604 -6 109 -8 117 -34 143 -29 30 -69 36 -104 16z"/>
<path d="M4094 2078 c-28 -13 -44 -49 -44 -96 0 -160 -71 -350 -183 -490 -141
-178 -391 -301 -609 -302 -49 0 -83 -17 -97 -47 -18 -40 -13 -73 17 -102 24
-25 36 -28 117 -34 403 -28 721 -343 752 -747 6 -75 10 -88 34 -112 37 -37 81
-37 118 0 25 24 28 37 34 117 8 114 28 188 77 291 77 160 214 297 374 374 102
49 177 69 290 77 111 8 141 27 141 93 0 64 -31 85 -136 93 -403 31 -718 350
-746 752 -6 81 -9 93 -34 117 -29 30 -66 35 -105 16z"/>
</g>
</svg>
