<?xml version="1.0" standalone="no"?>
<!DOCTYPE svg PUBLIC "-//W3C//DTD SVG 20010904//EN"
 "http://www.w3.org/TR/2001/REC-SVG-20010904/DTD/svg10.dtd">
<svg version="1.0" xmlns="http://www.w3.org/2000/svg"
 width="512.000000pt" height="512.000000pt" viewBox="0 0 512.000000 512.000000"
 preserveAspectRatio="xMidYMid meet">

<g transform="translate(0.000000,512.000000) scale(0.100000,-0.100000)"
fill="#000000" stroke="none">
<path d="M2225 5103 c-86 -11 -262 -47 -356 -74 -412 -115 -767 -318 -1081
-618 -102 -98 -270 -289 -276 -316 -2 -7 5 -15 15 -18 10 -3 72 -24 138 -47
66 -22 171 -54 233 -70 123 -32 422 -94 426 -89 2 2 22 56 45 119 169 457 440
832 727 1007 49 30 156 79 219 101 29 10 28 10 -15 10 -25 -1 -58 -3 -75 -5z"/>
<path d="M2805 5099 c203 -76 329 -160 482 -322 196 -208 385 -539 488 -854 9
-29 20 -55 24 -57 17 -11 407 69 563 115 121 35 258 88 258 99 0 19 -143 185
-259 300 -366 366 -815 603 -1321 699 -129 24 -281 37 -235 20z"/>
<path d="M2354 4792 c-190 -79 -382 -271 -528 -530 -58 -102 -128 -252 -170
-364 l-25 -68 22 -5 c48 -10 382 -35 542 -40 94 -4 180 -8 193 -11 l22 -4 0
520 c0 286 -3 520 -7 519 -5 0 -26 -8 -49 -17z"/>
<path d="M2710 4290 l0 -521 63 5 c34 3 134 8 222 11 150 5 485 32 492 39 5 5
-60 171 -106 269 -122 264 -306 508 -462 614 -49 34 -151 87 -186 98 l-23 6 0
-521z"/>
<path d="M298 3768 c-120 -218 -220 -511 -263 -763 -13 -83 -35 -253 -35 -282
0 -10 119 -13 564 -13 505 0 564 2 570 16 3 9 6 46 6 84 0 136 40 457 82 657
12 57 19 105 17 108 -3 2 -63 16 -135 30 -251 50 -480 114 -665 186 -55 21
-102 39 -104 39 -2 0 -19 -28 -37 -62z"/>
<path d="M4690 3779 c-172 -72 -399 -135 -664 -184 -77 -14 -142 -27 -144 -30
-2 -2 5 -48 17 -102 41 -197 81 -517 81 -653 0 -38 3 -75 6 -84 6 -14 65 -16
571 -16 l565 0 -7 63 c-37 359 -113 632 -258 925 -33 67 -63 122 -66 121 -3 0
-49 -18 -101 -40z"/>
<path d="M1540 3526 c0 -3 -9 -48 -20 -99 -42 -194 -79 -500 -80 -644 l0 -73
485 0 485 0 0 379 0 379 -62 6 c-35 3 -133 8 -218 11 -138 6 -321 20 -522 41
-38 4 -68 4 -68 0z"/>
<path d="M3450 3515 c-104 -12 -310 -25 -627 -41 l-113 -6 0 -379 0 -379 485
0 485 0 0 74 c0 139 -36 428 -80 640 -11 54 -20 100 -20 102 0 2 -3 3 -7 3 -5
-1 -60 -7 -123 -14z"/>
<path d="M5 2343 c25 -258 85 -512 175 -737 55 -139 195 -403 257 -485 2 -2
56 21 120 52 181 86 408 157 661 208 39 8 62 18 62 27 0 7 -13 68 -29 135 -57
237 -94 492 -109 742 l-7 120 -568 3 -569 2 7 -67z"/>
<path d="M1444 2283 c13 -230 50 -471 108 -705 38 -149 13 -136 215 -113 131
15 315 29 526 41 l117 6 0 449 0 449 -486 0 -487 0 7 -127z"/>
<path d="M2710 1966 l0 -443 31 -7 c17 -3 106 -6 198 -6 91 0 256 -7 366 -15
110 -8 209 -15 220 -15 18 0 24 15 48 113 53 221 91 474 103 690 l7 127 -487
0 -486 0 0 -444z"/>
<path d="M3986 2398 c-3 -7 -7 -67 -10 -133 -11 -215 -49 -480 -102 -702 -13
-57 -24 -107 -24 -111 0 -5 39 -14 88 -21 219 -32 566 -108 745 -165 l78 -24
30 51 c50 88 119 237 165 357 86 223 131 422 159 698 l7 62 -566 0 c-445 0
-567 -3 -570 -12z"/>
<path d="M2210 1199 c-197 -12 -520 -42 -520 -48 0 -3 26 -60 58 -126 173
-356 372 -588 586 -685 36 -17 68 -30 71 -30 3 0 5 203 5 450 l0 450 -37 -1
c-21 -1 -94 -5 -163 -10z"/>
<path d="M2710 760 c0 -247 2 -450 5 -450 3 0 35 13 71 30 167 75 326 235 470
471 55 90 184 347 184 366 0 12 -352 33 -562 33 l-168 0 0 -450z"/>
<path d="M3730 1093 c-214 -544 -541 -929 -905 -1065 l-50 -18 80 6 c103 7
261 37 396 75 410 114 773 322 1081 617 95 92 254 270 247 276 -9 8 -246 68
-359 91 -123 26 -419 75 -451 75 -11 0 -25 -20 -39 -57z"/>
<path d="M1225 1075 c-234 -52 -450 -123 -565 -185 l-35 -18 130 -129 c275
-273 575 -465 929 -594 181 -66 427 -122 581 -133 l80 -6 -50 18 c-359 134
-673 500 -898 1045 -9 20 -17 37 -19 36 -2 0 -70 -16 -153 -34z"/>
</g>
</svg>
